<svg width="4802" height="1034" viewBox="0 0 4802 1034" fill="none" xmlns="http://www.w3.org/2000/svg">
<circle cx="587" cy="521" r="335" fill="white" stroke="white" stroke-width="70"/>
<line x1="827.736" y1="516.86" x2="351.736" y2="713.86" stroke="black" stroke-width="30"/>
<path d="M365 684.5L346 321" stroke="black" stroke-width="30"/>
<path d="M358.99 113.5L346 91L333.01 113.5L159.805 413.5L146.814 436H172.795H519.205H545.186L532.195 413.5L358.99 113.5Z" fill="white" stroke="black" stroke-width="30"/>
<path d="M366 865C457.127 865 531 791.127 531 700C531 608.873 457.127 535 366 535C274.873 535 201 608.873 201 700C201 791.127 274.873 865 366 865Z" fill="white" stroke="black" stroke-width="30"/>
<rect x="683" y="356" width="330" height="330" fill="white" stroke="black" stroke-width="30"/>
<path d="M1264.6 762.8C1241.4 762.8 1219.2 760.2 1198 755C1177.2 749.8 1159.2 742.8 1144 734L1151.2 653.6C1169.2 664.8 1188 673.6 1207.6 680C1227.6 686 1246 689 1262.8 689C1282 689 1297.6 685 1309.6 677C1321.6 669 1327.6 658.4 1327.6 645.2C1327.6 634.4 1323.6 626.2 1315.6 620.6C1307.6 614.6 1295 608.2 1277.8 601.4L1263.4 595.4C1261.4 594.6 1259.2 593.8 1256.8 593C1254.4 591.8 1251.6 590.6 1248.4 589.4C1226 580.2 1208 571.6 1194.4 563.6C1180.8 555.2 1169 543.6 1159 528.8C1149.4 514 1144.6 494.8 1144.6 471.2C1144.6 432.8 1157.6 402.6 1183.6 380.6C1209.6 358.6 1245.8 347.6 1292.2 347.6C1327.4 347.6 1363.4 354.8 1400.2 369.2L1387 448.4C1372.2 440 1356.2 433.4 1339 428.6C1322.2 423.8 1306.2 421.4 1291 421.4C1272.2 421.4 1257.6 425.2 1247.2 432.8C1236.8 440 1231.6 449.8 1231.6 462.2C1231.6 473 1235.2 481.4 1242.4 487.4C1249.6 493.4 1261.2 499.8 1277.2 506.6L1301.8 516.2C1325 525 1344.2 533.6 1359.4 542C1374.6 550.4 1387.6 562.6 1398.4 578.6C1409.2 594.2 1414.6 614.6 1414.6 639.8C1414.6 678.6 1401.4 708.8 1375 730.4C1348.6 752 1311.8 762.8 1264.6 762.8ZM1437.02 446H1523.42L1578.62 650.6L1638.02 447.8L1733.42 440L1797.62 656.6L1854.02 446H1934.42L1840.22 755H1747.82L1684.22 530.6L1617.62 755H1527.02L1437.02 446ZM2020.52 317H2117.12V395H2020.52V317ZM1973.72 682.4H2031.32V518.6H1973.72V446H2115.92V682.4H2167.52V755H1973.72V682.4ZM2212.18 682.4H2266.78V518.6H2212.18V446H2266.78V408.2C2266.78 378.2 2276.38 354.2 2295.58 336.2C2314.78 317.8 2340.38 308.6 2372.38 308.6C2394.78 308.6 2419.58 314.2 2446.78 325.4L2417.38 392C2403.78 385.2 2391.58 381.8 2380.78 381.8C2371.58 381.8 2364.38 384.4 2359.18 389.6C2353.98 394.8 2351.38 402.4 2351.38 412.4V446H2423.38V518.6H2351.38V682.4H2423.38V755H2212.18V682.4ZM2497.87 355.4H2584.87V679.4H2728.87V755H2497.87V355.4ZM2931.88 764C2881.88 764 2842.48 749.6 2813.68 720.8C2785.28 692 2771.08 652 2771.08 600.8C2771.08 567.6 2777.28 538.8 2789.68 514.4C2802.08 489.6 2819.48 470.6 2841.88 457.4C2864.68 444.2 2891.28 437.6 2921.68 437.6C2966.48 437.6 3000.88 452 3024.88 480.8C3048.88 509.6 3060.88 551.2 3060.88 605.6C3060.88 614.8 3060.68 621.6 3060.28 626H2856.28C2860.28 647.2 2869.48 663.4 2883.88 674.6C2898.28 685.4 2917.68 690.8 2942.08 690.8C2956.88 690.8 2972.28 689 2988.28 685.4C3004.28 681.4 3018.28 676.2 3030.28 669.8L3044.08 737.6C3028.08 746 3010.28 752.4 2990.68 756.8C2971.48 761.6 2951.88 764 2931.88 764ZM2979.88 562.4C2978.68 545.2 2972.68 531.6 2961.88 521.6C2951.08 511.2 2936.68 506 2918.68 506C2901.48 506 2887.28 511 2876.08 521C2865.28 531 2858.48 544.8 2855.68 562.4H2979.88ZM3237.56 764C3208.76 764 3186.36 756.8 3170.36 742.4C3154.76 727.6 3146.96 706.8 3146.96 680V518.6H3098.96V446H3146.96V380C3175.36 375.2 3203.36 371.6 3230.96 369.2V446H3308.96V518.6H3230.96V664.4C3230.96 672.8 3233.36 679.2 3238.16 683.6C3243.36 688 3250.56 690.2 3259.76 690.2C3270.96 690.2 3283.76 687.6 3298.16 682.4L3316.76 746C3291.16 758 3264.76 764 3237.56 764ZM3442.7 755.6C3414.3 755.6 3393.1 755.4 3379.1 755V355.4C3396.3 355 3421.7 354.8 3455.3 354.8C3489.3 354.8 3514.7 355 3531.5 355.4C3570.7 355.8 3604.7 363.8 3633.5 379.4C3662.7 394.6 3685.1 416.4 3700.7 444.8C3716.7 473.2 3724.7 506.4 3724.7 544.4C3724.7 586 3715.5 622.6 3697.1 654.2C3679.1 685.8 3653.5 710.4 3620.3 728C3587.5 745.6 3549.3 754.6 3505.7 755C3491.7 755.4 3470.7 755.6 3442.7 755.6ZM3505.1 679.4C3545.5 679.4 3577.3 667.6 3600.5 644C3623.7 620.4 3635.3 588 3635.3 546.8C3635.3 509.6 3625.3 481 3605.3 461C3585.7 441 3557.3 431 3520.1 431H3466.1V679.4H3505.1ZM3881.53 764C3849.53 764 3824.13 750.4 3805.33 723.2C3786.53 696 3777.13 659 3777.13 612.2C3777.13 555.4 3791.53 512.2 3820.33 482.6C3849.13 452.6 3890.53 437.6 3944.53 437.6C3974.93 437.6 4010.53 442.4 4051.33 452V755H3970.93L3972.73 705.8H3970.33C3959.93 724.6 3947.13 739 3931.93 749C3917.13 759 3900.33 764 3881.53 764ZM3899.53 690.2C3911.93 690.2 3924.13 683.6 3936.13 670.4C3948.13 657.2 3959.33 639.6 3969.73 617.6V516.8C3956.93 513.2 3944.13 511.4 3931.33 511.4C3907.33 511.4 3889.13 519.6 3876.73 536C3864.73 552.4 3858.73 576.6 3858.73 608.6C3858.73 633.8 3862.33 653.8 3869.53 668.6C3876.73 683 3886.73 690.2 3899.53 690.2ZM4245.38 764C4216.58 764 4194.18 756.8 4178.18 742.4C4162.58 727.6 4154.78 706.8 4154.78 680V518.6H4106.78V446H4154.78V380C4183.18 375.2 4211.18 371.6 4238.78 369.2V446H4316.78V518.6H4238.78V664.4C4238.78 672.8 4241.18 679.2 4245.98 683.6C4251.18 688 4258.38 690.2 4267.58 690.2C4278.78 690.2 4291.58 687.6 4305.98 682.4L4324.58 746C4298.98 758 4272.58 764 4245.38 764ZM4459.27 764C4427.27 764 4401.87 750.4 4383.07 723.2C4364.27 696 4354.87 659 4354.87 612.2C4354.87 555.4 4369.27 512.2 4398.07 482.6C4426.87 452.6 4468.27 437.6 4522.27 437.6C4552.67 437.6 4588.27 442.4 4629.07 452V755H4548.67L4550.47 705.8H4548.07C4537.67 724.6 4524.87 739 4509.67 749C4494.87 759 4478.07 764 4459.27 764ZM4477.27 690.2C4489.67 690.2 4501.87 683.6 4513.87 670.4C4525.87 657.2 4537.07 639.6 4547.47 617.6V516.8C4534.67 513.2 4521.87 511.4 4509.07 511.4C4485.07 511.4 4466.87 519.6 4454.47 536C4442.47 552.4 4436.47 576.6 4436.47 608.6C4436.47 633.8 4440.07 653.8 4447.27 668.6C4454.47 683 4464.47 690.2 4477.27 690.2Z" fill="white"/>
</svg>
