<svg width="5131" height="1034" viewBox="0 0 5131 1034" fill="none" xmlns="http://www.w3.org/2000/svg">
<circle cx="587" cy="521" r="335" fill="white" stroke="white" stroke-width="70"/>
<line x1="827.736" y1="516.86" x2="351.736" y2="713.86" stroke="black" stroke-width="30"/>
<path d="M365 684.5L346 321" stroke="black" stroke-width="30"/>
<path d="M358.99 113.5L346 91L333.01 113.5L159.805 413.5L146.814 436H172.795H519.205H545.186L532.195 413.5L358.99 113.5Z" fill="white" stroke="black" stroke-width="30"/>
<path d="M366 865C457.127 865 531 791.127 531 700C531 608.873 457.127 535 366 535C274.873 535 201 608.873 201 700C201 791.127 274.873 865 366 865Z" fill="white" stroke="black" stroke-width="30"/>
<rect x="683" y="356" width="330" height="330" fill="white" stroke="black" stroke-width="30"/>
<path d="M1264.6 762.8C1241.4 762.8 1219.2 760.2 1198 755C1177.2 749.8 1159.2 742.8 1144 734L1151.2 653.6C1169.2 664.8 1188 673.6 1207.6 680C1227.6 686 1246 689 1262.8 689C1282 689 1297.6 685 1309.6 677C1321.6 669 1327.6 658.4 1327.6 645.2C1327.6 634.4 1323.6 626.2 1315.6 620.6C1307.6 614.6 1295 608.2 1277.8 601.4L1263.4 595.4C1261.4 594.6 1259.2 593.8 1256.8 593C1254.4 591.8 1251.6 590.6 1248.4 589.4C1226 580.2 1208 571.6 1194.4 563.6C1180.8 555.2 1169 543.6 1159 528.8C1149.4 514 1144.6 494.8 1144.6 471.2C1144.6 432.8 1157.6 402.6 1183.6 380.6C1209.6 358.6 1245.8 347.6 1292.2 347.6C1327.4 347.6 1363.4 354.8 1400.2 369.2L1387 448.4C1372.2 440 1356.2 433.4 1339 428.6C1322.2 423.8 1306.2 421.4 1291 421.4C1272.2 421.4 1257.6 425.2 1247.2 432.8C1236.8 440 1231.6 449.8 1231.6 462.2C1231.6 473 1235.2 481.4 1242.4 487.4C1249.6 493.4 1261.2 499.8 1277.2 506.6L1301.8 516.2C1325 525 1344.2 533.6 1359.4 542C1374.6 550.4 1387.6 562.6 1398.4 578.6C1409.2 594.2 1414.6 614.6 1414.6 639.8C1414.6 678.6 1401.4 708.8 1375 730.4C1348.6 752 1311.8 762.8 1264.6 762.8ZM1437.02 446H1523.42L1578.62 650.6L1638.02 447.8L1733.42 440L1797.62 656.6L1854.02 446H1934.42L1840.22 755H1747.82L1684.22 530.6L1617.62 755H1527.02L1437.02 446ZM2020.52 317H2117.12V395H2020.52V317ZM1973.72 682.4H2031.32V518.6H1973.72V446H2115.92V682.4H2167.52V755H1973.72V682.4ZM2212.18 682.4H2266.78V518.6H2212.18V446H2266.78V408.2C2266.78 378.2 2276.38 354.2 2295.58 336.2C2314.78 317.8 2340.38 308.6 2372.38 308.6C2394.78 308.6 2419.58 314.2 2446.78 325.4L2417.38 392C2403.78 385.2 2391.58 381.8 2380.78 381.8C2371.58 381.8 2364.38 384.4 2359.18 389.6C2353.98 394.8 2351.38 402.4 2351.38 412.4V446H2423.38V518.6H2351.38V682.4H2423.38V755H2212.18V682.4ZM2608.27 764C2579.47 764 2557.07 756.8 2541.07 742.4C2525.47 727.6 2517.67 706.8 2517.67 680V518.6H2469.67V446H2517.67V380C2546.07 375.2 2574.07 371.6 2601.67 369.2V446H2679.67V518.6H2601.67V664.4C2601.67 672.8 2604.07 679.2 2608.87 683.6C2614.07 688 2621.27 690.2 2630.47 690.2C2641.67 690.2 2654.47 687.6 2668.87 682.4L2687.47 746C2661.87 758 2635.47 764 2608.27 764ZM2798.82 889.4C2780.42 889.4 2761.22 885 2741.22 876.2L2753.82 806.6C2769.02 814.2 2781.82 818 2792.22 818C2804.62 818 2813.82 814 2819.82 806C2826.22 798 2833.02 784 2840.22 764L2719.62 447.2L2807.22 440L2881.02 661.4L2949.42 446H3032.82C3007.22 523.6 2980.22 600 2951.82 675.2C2923.82 750.4 2902.02 802 2886.42 830C2875.22 850 2862.62 864.8 2848.62 874.4C2835.02 884.4 2818.42 889.4 2798.82 889.4ZM3290.94 473L3265.74 755H3188.34L3226.14 355.4H3334.14L3436.14 642.2L3535.14 355.4H3643.14L3679.74 755H3601.74L3574.14 474.2L3468.54 759.2L3397.14 765.8L3290.94 473ZM3889.82 764C3858.62 764 3831.02 757.2 3807.02 743.6C3783.42 730 3765.02 711 3751.82 686.6C3738.62 661.8 3732.02 633.2 3732.02 600.8C3732.02 568.4 3738.42 540 3751.22 515.6C3764.42 490.8 3782.82 471.6 3806.42 458C3830.42 444.4 3858.02 437.6 3889.22 437.6C3920.42 437.6 3947.82 444.4 3971.42 458C3995.42 471.2 4013.82 490 4026.62 514.4C4039.82 538.8 4046.42 567 4046.42 599C4046.42 631.4 4039.82 660.2 4026.62 685.4C4013.82 710.2 3995.42 729.6 3971.42 743.6C3947.82 757.2 3920.62 764 3889.82 764ZM3889.22 690.8C3910.82 690.8 3928.02 682.6 3940.82 666.2C3954.02 649.4 3960.62 627.4 3960.62 600.2C3960.62 573 3954.02 551.4 3940.82 535.4C3928.02 519 3910.82 510.8 3889.22 510.8C3867.62 510.8 3850.22 519 3837.02 535.4C3824.22 551.4 3817.82 573 3817.82 600.2C3817.82 627.4 3824.22 649.4 3837.02 666.2C3850.22 682.6 3867.62 690.8 3889.22 690.8ZM4208.65 764C4173.85 764 4146.45 750.8 4126.45 724.4C4106.85 697.6 4097.05 660.4 4097.05 612.8C4097.05 556.4 4111.65 513.2 4140.85 483.2C4170.45 452.8 4212.45 437.6 4266.85 437.6C4273.65 437.6 4283.85 438 4297.45 438.8V317H4380.85V755H4298.65L4300.45 714.8H4298.05C4287.65 730.8 4274.85 743 4259.65 751.4C4244.85 759.8 4227.85 764 4208.65 764ZM4227.85 690.2C4240.65 690.2 4253.05 684.8 4265.05 674C4277.05 662.8 4287.85 647 4297.45 626.6V516.8C4283.85 513.2 4270.85 511.4 4258.45 511.4C4233.25 511.4 4214.05 519.6 4200.85 536C4188.05 552.4 4181.65 576.4 4181.65 608C4181.65 633.6 4185.65 653.8 4193.65 668.6C4202.05 683 4213.45 690.2 4227.85 690.2ZM4604.14 764C4554.14 764 4514.74 749.6 4485.94 720.8C4457.54 692 4443.34 652 4443.34 600.8C4443.34 567.6 4449.54 538.8 4461.94 514.4C4474.34 489.6 4491.74 470.6 4514.14 457.4C4536.94 444.2 4563.54 437.6 4593.94 437.6C4638.74 437.6 4673.14 452 4697.14 480.8C4721.14 509.6 4733.14 551.2 4733.14 605.6C4733.14 614.8 4732.94 621.6 4732.54 626H4528.54C4532.54 647.2 4541.74 663.4 4556.14 674.6C4570.54 685.4 4589.94 690.8 4614.34 690.8C4629.14 690.8 4644.54 689 4660.54 685.4C4676.54 681.4 4690.54 676.2 4702.54 669.8L4716.34 737.6C4700.34 746 4682.54 752.4 4662.94 756.8C4643.74 761.6 4624.14 764 4604.14 764ZM4652.14 562.4C4650.94 545.2 4644.94 531.6 4634.14 521.6C4623.34 511.2 4608.94 506 4590.94 506C4573.74 506 4559.54 511 4548.34 521C4537.54 531 4530.74 544.8 4527.94 562.4H4652.14ZM4776.77 682.4H4831.37V389H4779.77V317H4915.97V682.4H4970.57V755H4776.77V682.4Z" fill="white"/>
</svg>
