<svg width="4972" height="1034" viewBox="0 0 4972 1034" fill="none" xmlns="http://www.w3.org/2000/svg">
<rect width="4972" height="1034" fill="white"/>
<path d="M578.592 856C761.708 856 909.295 705.538 909.295 521C909.295 336.462 761.708 186 578.592 186C395.476 186 247.889 336.462 247.889 521C247.889 705.538 395.476 856 578.592 856Z" fill="black" stroke="black" stroke-width="70"/>
<line y1="-15" x2="508.862" y2="-15" transform="matrix(-0.922022 0.387138 -0.377718 -0.925921 810.226 503)" stroke="white" stroke-width="30"/>
<path d="M359.772 684.5L341.044 321" stroke="white" stroke-width="30"/>
<path d="M354.081 113.581L341.044 90.6724L328.007 113.581L157.283 413.581L144.525 436H170.32H511.768H537.563L524.805 413.581L354.081 113.581Z" fill="black" stroke="white" stroke-width="30"/>
<path d="M360.757 865C450.901 865 523.609 790.922 523.609 700C523.609 609.078 450.901 535 360.757 535C270.614 535 197.906 609.078 197.906 700C197.906 790.922 270.614 865 360.757 865Z" fill="black" stroke="white" stroke-width="30"/>
<rect x="673.002" y="356" width="325.703" height="330" fill="black" stroke="white" stroke-width="30"/>
<path d="M1248.6 762.8C1225.4 762.8 1203.2 760.2 1182 755C1161.2 749.8 1143.2 742.8 1128 734L1135.2 653.6C1153.2 664.8 1172 673.6 1191.6 680C1211.6 686 1230 689 1246.8 689C1266 689 1281.6 685 1293.6 677C1305.6 669 1311.6 658.4 1311.6 645.2C1311.6 634.4 1307.6 626.2 1299.6 620.6C1291.6 614.6 1279 608.2 1261.8 601.4L1247.4 595.4C1245.4 594.6 1243.2 593.8 1240.8 593C1238.4 591.8 1235.6 590.6 1232.4 589.4C1210 580.2 1192 571.6 1178.4 563.6C1164.8 555.2 1153 543.6 1143 528.8C1133.4 514 1128.6 494.8 1128.6 471.2C1128.6 432.8 1141.6 402.6 1167.6 380.6C1193.6 358.6 1229.8 347.6 1276.2 347.6C1311.4 347.6 1347.4 354.8 1384.2 369.2L1371 448.4C1356.2 440 1340.2 433.4 1323 428.6C1306.2 423.8 1290.2 421.4 1275 421.4C1256.2 421.4 1241.6 425.2 1231.2 432.8C1220.8 440 1215.6 449.8 1215.6 462.2C1215.6 473 1219.2 481.4 1226.4 487.4C1233.6 493.4 1245.2 499.8 1261.2 506.6L1285.8 516.2C1309 525 1328.2 533.6 1343.4 542C1358.6 550.4 1371.6 562.6 1382.4 578.6C1393.2 594.2 1398.6 614.6 1398.6 639.8C1398.6 678.6 1385.4 708.8 1359 730.4C1332.6 752 1295.8 762.8 1248.6 762.8ZM1421.02 446H1507.42L1562.62 650.6L1622.02 447.8L1717.42 440L1781.62 656.6L1838.02 446H1918.42L1824.22 755H1731.82L1668.22 530.6L1601.62 755H1511.02L1421.02 446ZM2004.52 317H2101.12V395H2004.52V317ZM1957.72 682.4H2015.32V518.6H1957.72V446H2099.92V682.4H2151.52V755H1957.72V682.4ZM2196.18 682.4H2250.78V518.6H2196.18V446H2250.78V408.2C2250.78 378.2 2260.38 354.2 2279.58 336.2C2298.78 317.8 2324.38 308.6 2356.38 308.6C2378.78 308.6 2403.58 314.2 2430.78 325.4L2401.38 392C2387.78 385.2 2375.58 381.8 2364.78 381.8C2355.58 381.8 2348.38 384.4 2343.18 389.6C2337.98 394.8 2335.38 402.4 2335.38 412.4V446H2407.38V518.6H2335.38V682.4H2407.38V755H2196.18V682.4ZM2592.27 764C2563.47 764 2541.07 756.8 2525.07 742.4C2509.47 727.6 2501.67 706.8 2501.67 680V518.6H2453.67V446H2501.67V380C2530.07 375.2 2558.07 371.6 2585.67 369.2V446H2663.67V518.6H2585.67V664.4C2585.67 672.8 2588.07 679.2 2592.87 683.6C2598.07 688 2605.27 690.2 2614.47 690.2C2625.67 690.2 2638.47 687.6 2652.87 682.4L2671.47 746C2645.87 758 2619.47 764 2592.27 764ZM2711.75 682.4H2766.35V389H2714.75V317H2850.95V682.4H2905.55V755H2711.75V682.4ZM3099.86 764C3049.86 764 3010.46 749.6 2981.66 720.8C2953.26 692 2939.06 652 2939.06 600.8C2939.06 567.6 2945.26 538.8 2957.66 514.4C2970.06 489.6 2987.46 470.6 3009.86 457.4C3032.66 444.2 3059.26 437.6 3089.66 437.6C3134.46 437.6 3168.86 452 3192.86 480.8C3216.86 509.6 3228.86 551.2 3228.86 605.6C3228.86 614.8 3228.66 621.6 3228.26 626H3024.26C3028.26 647.2 3037.46 663.4 3051.86 674.6C3066.26 685.4 3085.66 690.8 3110.06 690.8C3124.86 690.8 3140.26 689 3156.26 685.4C3172.26 681.4 3186.26 676.2 3198.26 669.8L3212.06 737.6C3196.06 746 3178.26 752.4 3158.66 756.8C3139.46 761.6 3119.86 764 3099.86 764ZM3147.86 562.4C3146.66 545.2 3140.66 531.6 3129.86 521.6C3119.06 511.2 3104.66 506 3086.66 506C3069.46 506 3055.26 511 3044.06 521C3033.26 531 3026.46 544.8 3023.66 562.4H3147.86ZM3405.55 764C3376.75 764 3354.35 756.8 3338.35 742.4C3322.75 727.6 3314.95 706.8 3314.95 680V518.6H3266.95V446H3314.95V380C3343.35 375.2 3371.35 371.6 3398.95 369.2V446H3476.95V518.6H3398.95V664.4C3398.95 672.8 3401.35 679.2 3406.15 683.6C3411.35 688 3418.55 690.2 3427.75 690.2C3438.95 690.2 3451.75 687.6 3466.15 682.4L3484.75 746C3459.15 758 3432.75 764 3405.55 764ZM3610.69 755.6C3582.29 755.6 3561.09 755.4 3547.09 755V355.4C3564.29 355 3589.69 354.8 3623.29 354.8C3657.29 354.8 3682.69 355 3699.49 355.4C3738.69 355.8 3772.69 363.8 3801.49 379.4C3830.69 394.6 3853.09 416.4 3868.69 444.8C3884.69 473.2 3892.69 506.4 3892.69 544.4C3892.69 586 3883.49 622.6 3865.09 654.2C3847.09 685.8 3821.49 710.4 3788.29 728C3755.49 745.6 3717.29 754.6 3673.69 755C3659.69 755.4 3638.69 755.6 3610.69 755.6ZM3673.09 679.4C3713.49 679.4 3745.29 667.6 3768.49 644C3791.69 620.4 3803.29 588 3803.29 546.8C3803.29 509.6 3793.29 481 3773.29 461C3753.69 441 3725.29 431 3688.09 431H3634.09V679.4H3673.09ZM4049.52 764C4017.52 764 3992.12 750.4 3973.32 723.2C3954.52 696 3945.12 659 3945.12 612.2C3945.12 555.4 3959.52 512.2 3988.32 482.6C4017.12 452.6 4058.52 437.6 4112.52 437.6C4142.92 437.6 4178.52 442.4 4219.32 452V755H4138.92L4140.72 705.8H4138.32C4127.92 724.6 4115.12 739 4099.92 749C4085.12 759 4068.32 764 4049.52 764ZM4067.52 690.2C4079.92 690.2 4092.12 683.6 4104.12 670.4C4116.12 657.2 4127.32 639.6 4137.72 617.6V516.8C4124.92 513.2 4112.12 511.4 4099.32 511.4C4075.32 511.4 4057.12 519.6 4044.72 536C4032.72 552.4 4026.72 576.6 4026.72 608.6C4026.72 633.8 4030.32 653.8 4037.52 668.6C4044.72 683 4054.72 690.2 4067.52 690.2ZM4413.36 764C4384.56 764 4362.16 756.8 4346.16 742.4C4330.56 727.6 4322.76 706.8 4322.76 680V518.6H4274.76V446H4322.76V380C4351.16 375.2 4379.16 371.6 4406.76 369.2V446H4484.76V518.6H4406.76V664.4C4406.76 672.8 4409.16 679.2 4413.96 683.6C4419.16 688 4426.36 690.2 4435.56 690.2C4446.76 690.2 4459.56 687.6 4473.96 682.4L4492.56 746C4466.96 758 4440.56 764 4413.36 764ZM4627.25 764C4595.25 764 4569.85 750.4 4551.05 723.2C4532.25 696 4522.85 659 4522.85 612.2C4522.85 555.4 4537.25 512.2 4566.05 482.6C4594.85 452.6 4636.25 437.6 4690.25 437.6C4720.65 437.6 4756.25 442.4 4797.05 452V755H4716.65L4718.45 705.8H4716.05C4705.65 724.6 4692.85 739 4677.65 749C4662.85 759 4646.05 764 4627.25 764ZM4645.25 690.2C4657.65 690.2 4669.85 683.6 4681.85 670.4C4693.85 657.2 4705.05 639.6 4715.45 617.6V516.8C4702.65 513.2 4689.85 511.4 4677.05 511.4C4653.05 511.4 4634.85 519.6 4622.45 536C4610.45 552.4 4604.45 576.6 4604.45 608.6C4604.45 633.8 4608.05 653.8 4615.25 668.6C4622.45 683 4632.45 690.2 4645.25 690.2Z" fill="black"/>
</svg>
