<svg width="4735" height="1034" viewBox="0 0 4735 1034" fill="none" xmlns="http://www.w3.org/2000/svg">
<path d="M578.592 856C761.708 856 909.295 705.538 909.295 521C909.295 336.462 761.708 186 578.592 186C395.476 186 247.889 336.462 247.889 521C247.889 705.538 395.476 856 578.592 856Z" fill="white" stroke="white" stroke-width="70"/>
<line y1="-15" x2="508.862" y2="-15" transform="matrix(-0.922022 0.387138 -0.377718 -0.925921 810.226 503)" stroke="black" stroke-width="30"/>
<path d="M359.772 684.5L341.044 321" stroke="black" stroke-width="30"/>
<path d="M354.081 113.581L341.044 90.6724L328.007 113.581L157.283 413.581L144.525 436H170.32H511.768H537.563L524.805 413.581L354.081 113.581Z" fill="white" stroke="black" stroke-width="30"/>
<path d="M360.757 865C450.901 865 523.609 790.922 523.609 700C523.609 609.078 450.901 535 360.757 535C270.614 535 197.906 609.078 197.906 700C197.906 790.922 270.614 865 360.757 865Z" fill="white" stroke="black" stroke-width="30"/>
<rect x="673.002" y="356" width="325.703" height="330" fill="white" stroke="black" stroke-width="30"/>
<path d="M1266.9 649.504C1266.9 643.791 1265.87 638.444 1263.82 633.464C1261.92 628.483 1258.62 623.796 1253.93 619.401C1249.1 615.153 1242.8 611.271 1235.04 607.756C1227.42 604.094 1217.9 600.725 1206.47 597.648C1188.75 592.814 1173.15 586.955 1159.67 580.07C1146.34 573.186 1135.43 565.642 1126.93 557.438C1118.44 549.235 1111.99 540.153 1107.6 530.192C1103.35 520.231 1101.22 509.392 1101.22 497.673C1101.22 484.196 1104.08 471.965 1109.79 460.979C1115.51 449.992 1123.42 440.617 1133.52 432.854C1143.63 425.09 1155.57 419.157 1169.34 415.056C1183.11 410.808 1198.05 408.684 1214.16 408.684C1230.86 408.684 1246.1 411.101 1259.87 415.935C1273.78 420.769 1285.72 427.507 1295.68 436.149C1305.64 444.938 1313.41 455.339 1318.97 467.351C1324.54 479.362 1327.32 492.546 1327.32 506.901H1267.12C1266.82 499.724 1265.51 493.132 1263.16 487.126C1260.96 481.12 1257.67 475.92 1253.27 471.525C1248.73 467.277 1243.09 463.981 1236.36 461.638C1229.76 459.147 1222 457.902 1213.06 457.902C1204.86 457.902 1197.54 458.928 1191.09 460.979C1184.79 462.883 1179.45 465.593 1175.05 469.108C1170.66 472.771 1167.29 477.092 1164.94 482.072C1162.75 486.906 1161.65 492.18 1161.65 497.893C1161.65 503.898 1163.11 509.318 1166.04 514.152C1169.12 518.986 1173.51 523.308 1179.23 527.116C1184.94 531.071 1191.82 534.66 1199.88 537.883C1208.08 541.105 1217.31 544.108 1227.57 546.892C1238.55 549.968 1249.03 553.703 1258.99 558.098C1268.95 562.492 1278.1 567.546 1286.45 573.259C1299.05 582.634 1309.08 593.547 1316.56 605.998C1324.03 618.449 1327.76 632.805 1327.76 649.064C1327.76 663.127 1324.91 675.651 1319.19 686.638C1313.63 697.478 1305.86 706.633 1295.9 714.104C1285.94 721.721 1274.08 727.507 1260.31 731.462C1246.54 735.271 1231.52 737.175 1215.26 737.175C1199.29 737.175 1183.47 734.831 1167.8 730.144C1152.27 725.31 1138.72 718.278 1127.15 709.05C1116.17 699.968 1107.45 689.274 1101 676.97C1094.71 664.665 1091.56 650.236 1091.56 633.684H1152.2C1152.49 643.352 1154.18 651.628 1157.25 658.513C1160.33 665.397 1164.65 671.037 1170.22 675.432C1175.64 679.826 1182.16 683.049 1189.77 685.1C1197.54 687.15 1206.03 688.176 1215.26 688.176C1223.46 688.176 1230.72 687.224 1237.01 685.319C1243.46 683.415 1248.88 680.778 1253.27 677.409C1257.67 674.04 1261.04 670.012 1263.38 665.324C1265.73 660.49 1266.9 655.217 1266.9 649.504ZM1390.82 733L1348.2 495.256H1404.01L1421.8 636.54L1424.66 659.172L1428.84 636.54L1454.54 495.256H1495.41L1521.12 635.881L1525.3 658.513L1528.37 635.441L1545.95 495.256H1601.98L1559.35 733H1505.74L1479.59 605.998L1474.54 581.828L1469.71 605.998L1444.44 733H1390.82ZM1659.77 495.256H1789.19V683.342H1853.57V733H1659.77V683.342H1727.44V545.134H1659.77V495.256ZM1723.05 434.392C1723.05 429.704 1723.86 425.383 1725.47 421.428C1727.22 417.326 1729.64 413.811 1732.72 410.881C1735.79 408.098 1739.46 405.9 1743.7 404.289C1748.1 402.678 1752.93 401.872 1758.21 401.872C1769.05 401.872 1777.62 404.948 1783.91 411.101C1790.36 417.106 1793.58 424.87 1793.58 434.392C1793.58 443.913 1790.36 451.75 1783.91 457.902C1777.62 463.908 1769.05 466.911 1758.21 466.911C1752.93 466.911 1748.1 466.105 1743.7 464.494C1739.46 462.883 1735.79 460.612 1732.72 457.683C1729.64 454.899 1727.22 451.53 1725.47 447.575C1723.86 443.474 1723.05 439.079 1723.05 434.392ZM1972.88 733V540.3H1910.48V495.256H1972.88V482.292C1972.88 466.618 1975.37 452.775 1980.35 440.764C1985.33 428.752 1992.43 418.645 2001.66 410.441C2010.89 402.238 2022.1 396.086 2035.28 391.984C2048.46 387.736 2063.19 385.612 2079.45 385.612C2084.57 385.612 2089.48 385.832 2094.17 386.271C2099 386.564 2103.69 387.004 2108.23 387.59C2112.77 388.176 2117.31 388.835 2121.85 389.567C2126.54 390.3 2131.38 391.105 2136.36 391.984L2132.4 439.885C2126.83 438.713 2120.54 437.688 2113.5 436.809C2106.47 435.93 2098.2 435.49 2088.67 435.49C2078.42 435.49 2069.71 436.662 2062.53 439.006C2055.35 441.35 2049.64 444.792 2045.39 449.333C2041.58 453.142 2038.72 457.829 2036.82 463.396C2035.06 468.962 2034.18 475.261 2034.18 482.292V495.256H2119.88V540.3H2034.18V733H1972.88ZM2296.1 437.028V495.256H2384.87V540.3H2296.1V642.473C2296.1 651.115 2297.05 658.366 2298.95 664.226C2301 669.938 2303.86 674.479 2307.52 677.849C2311.18 681.364 2315.58 683.854 2320.71 685.319C2325.98 686.784 2331.84 687.517 2338.28 687.517C2342.97 687.517 2347.73 687.297 2352.57 686.857C2357.55 686.418 2362.31 685.832 2366.85 685.1C2371.24 684.514 2375.34 683.854 2379.15 683.122C2383.11 682.39 2386.48 681.657 2389.26 680.925L2395.19 722.893C2390.95 725.383 2385.96 727.58 2380.25 729.484C2374.54 731.242 2368.46 732.707 2362.01 733.879C2355.57 735.051 2348.83 735.93 2341.8 736.516C2334.92 737.248 2328.1 737.614 2321.37 737.614C2308.33 737.614 2296.46 735.93 2285.77 732.561C2275.22 729.045 2266.21 723.625 2258.74 716.301C2251.13 709.123 2245.27 699.968 2241.17 688.835C2237.06 677.556 2235.01 664.079 2235.01 648.405V540.3H2180.74V495.256H2235.01V437.028H2296.1ZM2467.04 395.5H2599.98V683.342H2668.09V733H2467.04V683.342H2538.24V445.378H2467.04V395.5ZM2839.92 737.395C2821.61 737.395 2804.98 734.392 2790.04 728.386C2775.1 722.38 2762.28 714.177 2751.59 703.776C2740.9 693.522 2732.62 681.438 2726.76 667.521C2721.05 653.459 2718.19 638.444 2718.19 622.478V613.688C2718.19 595.524 2721.05 578.972 2726.76 564.03C2732.47 548.942 2740.46 535.979 2750.71 525.139C2760.96 514.299 2773.12 505.876 2787.19 499.87C2801.25 493.864 2816.56 490.861 2833.11 490.861C2850.25 490.861 2865.48 493.718 2878.81 499.431C2892.29 504.997 2903.71 512.907 2913.09 523.161C2922.32 533.415 2929.35 545.793 2934.18 560.295C2939.02 574.65 2941.43 590.544 2941.43 607.976V633.903H2780.15V634.562C2782.21 644.084 2784.84 651.774 2788.06 657.634C2791.29 663.347 2795.61 668.547 2801.03 673.234C2806.59 678.068 2812.97 681.804 2820.14 684.44C2827.32 687.077 2835.16 688.396 2843.66 688.396C2855.67 688.396 2867.31 686.125 2878.59 681.584C2889.87 677.043 2899.03 670.231 2906.06 661.149L2936.6 694.108C2928.84 705.095 2916.53 715.056 2899.69 723.991C2882.84 732.927 2862.92 737.395 2839.92 737.395ZM2832.67 540.3C2825.78 540.3 2819.49 541.545 2813.77 544.035C2808.06 546.379 2803.08 549.821 2798.83 554.362C2794.44 558.903 2790.77 564.323 2787.84 570.622C2784.92 576.921 2782.72 583.952 2781.25 591.716H2881.45V586.882C2881.45 580.437 2880.28 574.357 2877.93 568.645C2875.59 562.932 2872.37 557.951 2868.26 553.703C2864.16 549.602 2859.11 546.379 2853.1 544.035C2847.24 541.545 2840.43 540.3 2832.67 540.3ZM3106.89 437.028V495.256H3195.66V540.3H3106.89V642.473C3106.89 651.115 3107.84 658.366 3109.74 664.226C3111.79 669.938 3114.65 674.479 3118.31 677.849C3121.98 681.364 3126.37 683.854 3131.5 685.319C3136.77 686.784 3142.63 687.517 3149.08 687.517C3153.76 687.517 3158.52 687.297 3163.36 686.857C3168.34 686.418 3173.1 685.832 3177.64 685.1C3182.03 684.514 3186.14 683.854 3189.94 683.122C3193.9 682.39 3197.27 681.657 3200.05 680.925L3205.98 722.893C3201.74 725.383 3196.76 727.58 3191.04 729.484C3185.33 731.242 3179.25 732.707 3172.81 733.879C3166.36 735.051 3159.62 735.93 3152.59 736.516C3145.71 737.248 3138.89 737.614 3132.16 737.614C3119.12 737.614 3107.25 735.93 3096.56 732.561C3086.01 729.045 3077 723.625 3069.53 716.301C3061.92 709.123 3056.06 699.968 3051.96 688.835C3047.85 677.556 3045.8 664.079 3045.8 648.405V540.3H2991.53V495.256H3045.8V437.028H3106.89ZM3316.95 413.078L3369.02 573.039L3425.27 413.078H3475.81V733H3436.26V605.339L3439.55 471.745L3380.45 644.011H3357.16L3302.88 476.359L3306.18 605.339V733H3266.63V413.078H3316.95ZM3531.18 611.931C3531.18 594.792 3533.67 578.898 3538.65 564.25C3543.63 549.455 3550.81 536.638 3560.18 525.798C3569.41 514.958 3580.69 506.462 3594.02 500.31C3607.35 494.011 3622.37 490.861 3639.07 490.861C3655.91 490.861 3671 494.011 3684.33 500.31C3697.81 506.462 3709.23 514.958 3718.61 525.798C3727.83 536.638 3734.94 549.455 3739.92 564.25C3744.9 578.898 3747.39 594.792 3747.39 611.931V616.765C3747.39 633.903 3744.9 649.797 3739.92 664.445C3734.94 679.094 3727.83 691.838 3718.61 702.678C3709.23 713.518 3697.88 722.014 3684.55 728.166C3671.22 734.318 3656.2 737.395 3639.5 737.395C3622.66 737.395 3607.5 734.318 3594.02 728.166C3580.69 722.014 3569.41 713.518 3560.18 702.678C3550.81 691.838 3543.63 679.094 3538.65 664.445C3533.67 649.797 3531.18 633.903 3531.18 616.765V611.931ZM3571.83 616.765C3571.83 628.483 3573.22 639.689 3576 650.383C3578.79 660.93 3583.04 670.231 3588.75 678.288C3594.31 686.345 3601.35 692.717 3609.84 697.404C3618.34 702.092 3628.23 704.436 3639.5 704.436C3650.64 704.436 3660.38 702.092 3668.73 697.404C3677.22 692.717 3684.33 686.345 3690.04 678.288C3695.61 670.231 3699.78 660.93 3702.57 650.383C3705.35 639.689 3706.74 628.483 3706.74 616.765V611.931C3706.74 600.358 3705.28 589.299 3702.35 578.752C3699.56 568.059 3695.39 558.684 3689.82 550.627C3684.11 542.57 3677 536.198 3668.51 531.511C3660.16 526.677 3650.34 524.26 3639.07 524.26C3627.79 524.26 3617.97 526.677 3609.62 531.511C3601.27 536.198 3594.31 542.57 3588.75 550.627C3583.04 558.684 3578.79 568.059 3576 578.752C3573.22 589.299 3571.83 600.358 3571.83 611.931V616.765ZM3805.18 612.15C3805.18 594.426 3807.38 578.166 3811.77 563.371C3816.31 548.43 3822.76 535.612 3831.11 524.919C3839.31 514.226 3849.27 505.876 3860.99 499.87C3872.71 493.864 3885.82 490.861 3900.32 490.861C3914.53 490.861 3926.91 493.278 3937.45 498.112C3948.15 502.8 3957.38 509.685 3965.14 518.767V395.5H4005.79V733H3968.44L3966.68 707.951C3958.77 717.619 3949.32 724.943 3938.33 729.924C3927.35 734.904 3914.53 737.395 3899.88 737.395C3885.53 737.395 3872.49 734.318 3860.77 728.166C3849.2 722.014 3839.31 713.518 3831.11 702.678C3822.9 691.838 3816.53 679.094 3811.99 664.445C3807.45 649.65 3805.18 633.757 3805.18 616.765V612.15ZM3845.83 616.765C3845.83 628.337 3847.07 639.323 3849.56 649.724C3852.05 660.124 3855.94 669.279 3861.21 677.189C3866.34 685.1 3872.93 691.398 3880.98 696.086C3889.04 700.627 3898.71 702.897 3909.99 702.897C3923.61 702.897 3934.89 699.821 3943.83 693.669C3952.76 687.517 3959.87 679.24 3965.14 668.84V558.537C3959.87 548.869 3952.76 540.959 3943.83 534.807C3934.89 528.508 3923.76 525.358 3910.43 525.358C3899 525.358 3889.19 527.702 3880.98 532.39C3872.93 537.077 3866.34 543.376 3861.21 551.286C3855.94 559.343 3852.05 568.645 3849.56 579.191C3847.07 589.592 3845.83 600.578 3845.83 612.15V616.765ZM4188.16 737.395C4171.46 737.395 4156.08 734.538 4142.02 728.825C4128.1 723.112 4116.17 715.129 4106.2 704.875C4096.24 694.621 4088.48 682.463 4082.91 668.4C4077.35 654.338 4074.56 639.03 4074.56 622.478V613.249C4074.56 594.06 4077.64 576.921 4083.79 561.833C4089.94 546.599 4098.15 533.708 4108.4 523.161C4118.51 512.761 4130.01 504.777 4142.9 499.211C4155.94 493.645 4169.27 490.861 4182.89 490.861C4200.03 490.861 4214.97 493.864 4227.71 499.87C4240.6 505.729 4251.3 513.859 4259.79 524.26C4268.29 534.807 4274.59 547.185 4278.69 561.394C4282.94 575.603 4285.06 590.983 4285.06 607.536V625.773H4115.21V627.312C4116.24 638.884 4118.51 649.064 4122.02 657.854C4125.69 666.643 4130.67 674.406 4136.97 681.145C4143.41 688.322 4151.17 693.962 4160.26 698.063C4169.34 702.165 4179.37 704.216 4190.36 704.216C4204.86 704.216 4217.75 701.286 4229.03 695.427C4240.31 689.567 4249.69 681.804 4257.16 672.136L4281.99 691.472C4274.08 703.483 4262.21 714.177 4246.39 723.552C4230.72 732.78 4211.31 737.395 4188.16 737.395ZM4182.89 524.26C4174.69 524.26 4166.92 525.798 4159.6 528.874C4152.27 531.804 4145.68 536.125 4139.82 541.838C4133.96 547.697 4128.98 554.875 4124.88 563.371C4120.93 571.721 4118.14 581.389 4116.53 592.375H4244.41V590.397C4244.41 583.073 4243.02 575.236 4240.24 566.887C4237.45 558.391 4233.57 551.066 4228.59 544.914C4223.61 538.762 4217.31 533.781 4209.7 529.973C4202.22 526.164 4193.29 524.26 4182.89 524.26ZM4359.77 395.5H4481.28V697.844H4558.84V733H4359.77V697.844H4440.63V430.876H4359.77V395.5Z" fill="white"/>
</svg>
