<svg width="4948" height="1034" viewBox="0 0 4948 1034" fill="none" xmlns="http://www.w3.org/2000/svg">
<circle cx="587" cy="521" r="335" fill="white" stroke="white" stroke-width="70"/>
<line x1="827.736" y1="516.86" x2="351.736" y2="713.86" stroke="black" stroke-width="30"/>
<path d="M365 684.5L346 321" stroke="black" stroke-width="30"/>
<path d="M358.99 113.5L346 91L333.01 113.5L159.805 413.5L146.814 436H172.795H519.205H545.186L532.195 413.5L358.99 113.5Z" fill="white" stroke="black" stroke-width="30"/>
<path d="M366 865C457.127 865 531 791.127 531 700C531 608.873 457.127 535 366 535C274.873 535 201 608.873 201 700C201 791.127 274.873 865 366 865Z" fill="white" stroke="black" stroke-width="30"/>
<rect x="683" y="356" width="330" height="330" fill="white" stroke="black" stroke-width="30"/>
<path d="M1264.6 762.8C1241.4 762.8 1219.2 760.2 1198 755C1177.2 749.8 1159.2 742.8 1144 734L1151.2 653.6C1169.2 664.8 1188 673.6 1207.6 680C1227.6 686 1246 689 1262.8 689C1282 689 1297.6 685 1309.6 677C1321.6 669 1327.6 658.4 1327.6 645.2C1327.6 634.4 1323.6 626.2 1315.6 620.6C1307.6 614.6 1295 608.2 1277.8 601.4L1263.4 595.4C1261.4 594.6 1259.2 593.8 1256.8 593C1254.4 591.8 1251.6 590.6 1248.4 589.4C1226 580.2 1208 571.6 1194.4 563.6C1180.8 555.2 1169 543.6 1159 528.8C1149.4 514 1144.6 494.8 1144.6 471.2C1144.6 432.8 1157.6 402.6 1183.6 380.6C1209.6 358.6 1245.8 347.6 1292.2 347.6C1327.4 347.6 1363.4 354.8 1400.2 369.2L1387 448.4C1372.2 440 1356.2 433.4 1339 428.6C1322.2 423.8 1306.2 421.4 1291 421.4C1272.2 421.4 1257.6 425.2 1247.2 432.8C1236.8 440 1231.6 449.8 1231.6 462.2C1231.6 473 1235.2 481.4 1242.4 487.4C1249.6 493.4 1261.2 499.8 1277.2 506.6L1301.8 516.2C1325 525 1344.2 533.6 1359.4 542C1374.6 550.4 1387.6 562.6 1398.4 578.6C1409.2 594.2 1414.6 614.6 1414.6 639.8C1414.6 678.6 1401.4 708.8 1375 730.4C1348.6 752 1311.8 762.8 1264.6 762.8ZM1437.02 446H1523.42L1578.62 650.6L1638.02 447.8L1733.42 440L1797.62 656.6L1854.02 446H1934.42L1840.22 755H1747.82L1684.22 530.6L1617.62 755H1527.02L1437.02 446ZM2020.52 317H2117.12V395H2020.52V317ZM1973.72 682.4H2031.32V518.6H1973.72V446H2115.92V682.4H2167.52V755H1973.72V682.4ZM2212.18 682.4H2266.78V518.6H2212.18V446H2266.78V408.2C2266.78 378.2 2276.38 354.2 2295.58 336.2C2314.78 317.8 2340.38 308.6 2372.38 308.6C2394.78 308.6 2419.58 314.2 2446.78 325.4L2417.38 392C2403.78 385.2 2391.58 381.8 2380.78 381.8C2371.58 381.8 2364.38 384.4 2359.18 389.6C2353.98 394.8 2351.38 402.4 2351.38 412.4V446H2423.38V518.6H2351.38V682.4H2423.38V755H2212.18V682.4ZM2608.27 764C2579.47 764 2557.07 756.8 2541.07 742.4C2525.47 727.6 2517.67 706.8 2517.67 680V518.6H2469.67V446H2517.67V380C2546.07 375.2 2574.07 371.6 2601.67 369.2V446H2679.67V518.6H2601.67V664.4C2601.67 672.8 2604.07 679.2 2608.87 683.6C2614.07 688 2621.27 690.2 2630.47 690.2C2641.67 690.2 2654.47 687.6 2668.87 682.4L2687.47 746C2661.87 758 2635.47 764 2608.27 764ZM2727.75 682.4H2782.35V389H2730.75V317H2866.95V682.4H2921.55V755H2727.75V682.4ZM3115.86 764C3065.86 764 3026.46 749.6 2997.66 720.8C2969.26 692 2955.06 652 2955.06 600.8C2955.06 567.6 2961.26 538.8 2973.66 514.4C2986.06 489.6 3003.46 470.6 3025.86 457.4C3048.66 444.2 3075.26 437.6 3105.66 437.6C3150.46 437.6 3184.86 452 3208.86 480.8C3232.86 509.6 3244.86 551.2 3244.86 605.6C3244.86 614.8 3244.66 621.6 3244.26 626H3040.26C3044.26 647.2 3053.46 663.4 3067.86 674.6C3082.26 685.4 3101.66 690.8 3126.06 690.8C3140.86 690.8 3156.26 689 3172.26 685.4C3188.26 681.4 3202.26 676.2 3214.26 669.8L3228.06 737.6C3212.06 746 3194.26 752.4 3174.66 756.8C3155.46 761.6 3135.86 764 3115.86 764ZM3163.86 562.4C3162.66 545.2 3156.66 531.6 3145.86 521.6C3135.06 511.2 3120.66 506 3102.66 506C3085.46 506 3071.26 511 3060.06 521C3049.26 531 3042.46 544.8 3039.66 562.4H3163.86ZM3421.55 764C3392.75 764 3370.35 756.8 3354.35 742.4C3338.75 727.6 3330.95 706.8 3330.95 680V518.6H3282.95V446H3330.95V380C3359.35 375.2 3387.35 371.6 3414.95 369.2V446H3492.95V518.6H3414.95V664.4C3414.95 672.8 3417.35 679.2 3422.15 683.6C3427.35 688 3434.55 690.2 3443.75 690.2C3454.95 690.2 3467.75 687.6 3482.15 682.4L3500.75 746C3475.15 758 3448.75 764 3421.55 764ZM3626.69 755.6C3598.29 755.6 3577.09 755.4 3563.09 755V355.4C3580.29 355 3605.69 354.8 3639.29 354.8C3673.29 354.8 3698.69 355 3715.49 355.4C3754.69 355.8 3788.69 363.8 3817.49 379.4C3846.69 394.6 3869.09 416.4 3884.69 444.8C3900.69 473.2 3908.69 506.4 3908.69 544.4C3908.69 586 3899.49 622.6 3881.09 654.2C3863.09 685.8 3837.49 710.4 3804.29 728C3771.49 745.6 3733.29 754.6 3689.69 755C3675.69 755.4 3654.69 755.6 3626.69 755.6ZM3689.09 679.4C3729.49 679.4 3761.29 667.6 3784.49 644C3807.69 620.4 3819.29 588 3819.29 546.8C3819.29 509.6 3809.29 481 3789.29 461C3769.69 441 3741.29 431 3704.09 431H3650.09V679.4H3689.09ZM4065.52 764C4033.52 764 4008.12 750.4 3989.32 723.2C3970.52 696 3961.12 659 3961.12 612.2C3961.12 555.4 3975.52 512.2 4004.32 482.6C4033.12 452.6 4074.52 437.6 4128.52 437.6C4158.92 437.6 4194.52 442.4 4235.32 452V755H4154.92L4156.72 705.8H4154.32C4143.92 724.6 4131.12 739 4115.92 749C4101.12 759 4084.32 764 4065.52 764ZM4083.52 690.2C4095.92 690.2 4108.12 683.6 4120.12 670.4C4132.12 657.2 4143.32 639.6 4153.72 617.6V516.8C4140.92 513.2 4128.12 511.4 4115.32 511.4C4091.32 511.4 4073.12 519.6 4060.72 536C4048.72 552.4 4042.72 576.6 4042.72 608.6C4042.72 633.8 4046.32 653.8 4053.52 668.6C4060.72 683 4070.72 690.2 4083.52 690.2ZM4429.36 764C4400.56 764 4378.16 756.8 4362.16 742.4C4346.56 727.6 4338.76 706.8 4338.76 680V518.6H4290.76V446H4338.76V380C4367.16 375.2 4395.16 371.6 4422.76 369.2V446H4500.76V518.6H4422.76V664.4C4422.76 672.8 4425.16 679.2 4429.96 683.6C4435.16 688 4442.36 690.2 4451.56 690.2C4462.76 690.2 4475.56 687.6 4489.96 682.4L4508.56 746C4482.96 758 4456.56 764 4429.36 764ZM4643.25 764C4611.25 764 4585.85 750.4 4567.05 723.2C4548.25 696 4538.85 659 4538.85 612.2C4538.85 555.4 4553.25 512.2 4582.05 482.6C4610.85 452.6 4652.25 437.6 4706.25 437.6C4736.65 437.6 4772.25 442.4 4813.05 452V755H4732.65L4734.45 705.8H4732.05C4721.65 724.6 4708.85 739 4693.65 749C4678.85 759 4662.05 764 4643.25 764ZM4661.25 690.2C4673.65 690.2 4685.85 683.6 4697.85 670.4C4709.85 657.2 4721.05 639.6 4731.45 617.6V516.8C4718.65 513.2 4705.85 511.4 4693.05 511.4C4669.05 511.4 4650.85 519.6 4638.45 536C4626.45 552.4 4620.45 576.6 4620.45 608.6C4620.45 633.8 4624.05 653.8 4631.25 668.6C4638.45 683 4648.45 690.2 4661.25 690.2Z" fill="white"/>
</svg>
